<?xml version="1.0" encoding="UTF-8"?>
<svg width="162px" height="155px" viewBox="0 0 162 155" version="1.1" xmlns="http://www.w3.org/2000/svg" xmlns:xlink="http://www.w3.org/1999/xlink">
    <!-- Generator: Sketch 47.1 (45422) - http://www.bohemiancoding.com/sketch -->
    <title>shortcuts copy</title>
    <desc>Created with Sketch.</desc>
    <defs>
        <linearGradient x1="-19.703539%" y1="33.1290122%" x2="100%" y2="47.739831%" id="linearGradient-1">
            <stop stop-color="#2C2283" offset="0%"></stop>
            <stop stop-color="#FF0000" offset="100%"></stop>
        </linearGradient>
    </defs>
    <g id="Page-1" stroke="none" stroke-width="1" fill="none" fill-rule="evenodd">
        <g id="Desktop-HD" transform="translate(-47.000000, -32.000000)">
            <g id="shortcuts-copy" transform="translate(47.000000, 32.000000)">
                <path d="M157.81459,84.1263334 L161,73 C160.043769,74.5153018 158.47234,75.9125989 156.379939,76.9232035 L153.718541,78.2091525 L15.2978723,145.077291 C12.4237082,146.465511 9.78541033,146.544786 8,145.567464 L13.3598784,152.452284 C14.4662614,153.873787 18.1167173,156.270796 22.4480243,154.178179 L152.866261,91.1757546 C156.241337,89.5454739 157.193313,86.2709938 157.81459,84.1263334" id="Fill-1" fill="#FFFFFF"></path>
                <path d="M109.409624,0 C107.86292,0.0121448674 106.029317,0.448145609 104.278205,1.29950082 L104.278205,1.29950082 L6.0430651,49.0245792 C2.66397089,50.6665652 0.0194096239,53.6438795 0,55.815989 L0,55.815989 L0,55.8651758 C0.000606550748,55.9167914 0.00242620299,55.9677999 0.00606550748,56.0188083 L0.00606550748,56.0188083 L5.97755762,141.505923 C6.27294784,145.73173 10.5667206,147.274128 15.561666,144.847583 L15.561666,144.847583 L153.674484,77.7477979 L156.329964,76.458013 C159.897695,74.7249404 161.973312,71.8648241 162,69.2020619 L162,69.2020619 L162,69.0994378 C161.989689,68.0701603 161.671249,67.0736739 161.012535,66.1852769 L161.012535,66.1852769 L112.803882,1.2181302 C112.208249,0.415354467 111.012131,0.0121448674 109.541245,0 L109.541245,0 L109.409624,0 Z" id="Fill-3" fill="url(#linearGradient-1)"></path>
                <path d="M43.3960577,83.6651688 L94.6837639,58.800917 L95.0911673,58.6035091 C103.183737,54.6797231 112.053301,55.4979909 115.019174,60.6342511 C118.124101,66.0111783 113.622536,74.012899 104.831038,78.2748374 C96.0395392,82.537385 86.8906477,81.1530928 84.4998968,75.4300925 L84.3827988,75.1492128 L71.6550996,44.689301 L71.3861401,44.0458976 C69.645527,39.8790074 74.0312132,33.8318683 81.1229611,30.3942906 C88.2140991,26.9561036 95.731547,27.2327184 97.9930022,31.1473651 C100.34533,35.2216441 96.1444395,41.6434926 88.5227011,45.3381879 L88.1390832,45.5246287 L39.8361564,68.9412229 L39.4531484,69.1270543 C31.8308001,72.822359 24.9366551,71.7792656 24.0858649,66.9768927 C23.2686184,62.3621792 28.3776288,55.9647021 35.4687668,52.5271244 C42.5605147,49.0889374 49.3552483,49.7158901 50.6921172,54.0783603 L50.8299513,54.5267929 L60.5826294,86.3502813 L60.7625456,86.93824 C62.5983008,92.9299343 57.0245577,101.451374 48.2330591,105.713312 C39.4421704,109.97525 31.3654575,108.071239 30.2432683,101.733472 C29.1704798,95.6796309 34.8960844,87.7851441 42.9892641,83.8619674 L43.3960577,83.6651688 Z" id="Stroke-6" stroke="#FFFFFF" stroke-width="5"></path>
            </g>
        </g>
    </g>
</svg>